<svg version="1.1" xmlns="http://www.w3.org/2000/svg" xmlns:xlink="http://www.w3.org/1999/xlink"
	 width="16px" height="21px" viewBox="0 0 16 21" >
<path fill-rule="evenodd" clip-rule="evenodd" fill="#939598" d="M6.639,13.787c-0.526,2.783-1.224,5.396-3.065,6.863
	c-0.791-4.07,0.802-7.478,1.48-10.768c-0.932-1.51-0.337-5.677,2.428-4.962c3.479,0.899-2.823,7.8,1.688,8.13
	c3.128,0.228,4.721-5.402,3.379-8.233c-0.881-1.863-2.708-2.428-4.327-2.43c-4.331-0.007-7.474,4.801-4.755,8.236
	c-0.168,0.535-0.201,1.204-0.526,1.584C0.569,11.274-0.129,9.76,0.196,6.714C0.59,3.059,4.459,0.022,9.171,0.379
	c6.868,0.523,8.612,8.726,4.539,12.986C12.414,14.723,8.301,16.07,6.639,13.787z"/>
</svg>
