<svg version="1.1" class="silhouette" xmlns="http://www.w3.org/2000/svg" xmlns:xlink="http://www.w3.org/1999/xlink" x="0px" y="0px"
	 width="195px" height="250px" viewBox="0 0 195 250" enable-background="new 0 0 195 250" xml:space="preserve">
<path fill="#F0D911" d="M107.538,188.391c0,0-1.799-14.399,7.201-20.313c8.998-5.914,8.74-6.171,16.455-2.314
	c7.715,3.857,21.342,10.284,24.172,2.828c0.514-5.142,1.027-6.685,0-7.456c-1.029-0.771-2.158-2.828,0.592-4.114
	s5.066-4.114,2.236-5.657c-2.828-1.543-4.115-2.057-0.771-2.571c3.344-0.514,6.17-0.772,4.371-4.886
	c-1.799-4.114-5.564-7.199,0.561-7.971s13.324-3.343,8.953-7.972s-13.629-16.971-8.484-24.171c5.143-7.2,7.199-15.428,2.057-26.999
	c-0.771-11.058,2.572-37.542-29.57-40.628c-5.656-6.428-19.285-22.886-56.828-12.857c-3.084-1.285-18.256-14.142-32.656,0.516
	c-14.398,14.656-11.314,29.312-3.6,35.998c-6.172,3.086-32.398,15.942-12.6,55.284c19.799,39.343,40.113,36.771,40.113,36.771
	s5.4,0.516-2.57,7.201c-7.973,6.685-12.086,9.771-12.086,9.771s-7.457-5.144-8.229-5.144s-9.514,12.601-9.514,12.601l3.342,2.571
	l-4.629,9.514l80.742,44.742l18.256-29.313L107.538,188.391z"/>
</svg>
