<?xml version="1.0" encoding="utf-8"?>
<!-- Generator: Adobe Illustrator 15.0.0, SVG Export Plug-In . SVG Version: 6.00 Build 0)  -->
<!DOCTYPE svg PUBLIC "-//W3C//DTD SVG 1.1//EN" "http://www.w3.org/Graphics/SVG/1.1/DTD/svg11.dtd">
<svg version="1.1" id="Layer_1" xmlns="http://www.w3.org/2000/svg" xmlns:xlink="http://www.w3.org/1999/xlink" x="0px" y="0px"
	 width="195px" height="250px" viewBox="0 0 195 250" enable-background="new 0 0 195 250" xml:space="preserve">
<path fill="#F0D911" d="M186.323,30.519c-0.191-1.34-4.212,8.806-13.975,12.443c-0.384-1.149,4.402-6.892,7.849-9.188
	c-0.606-0.606-3.006,0.332-7.657,4.403c0,0-1.326,0.38-3.254,1.022c-1.927,0.643-2.355-4.925,1.499-7.494s4.068-9.208,4.068-11.349
	s-0.634-2.127-2.997,2.784c-2.784,5.781-6.424,4.497-8.138,5.781c-1.713,1.285-5.995,1.927-4.282-0.214
	c1.713-2.142,0.856-11.135-1.07-14.775c-1.928-3.64-4.068-9.85-3.426-1.071c0.642,8.779,0.642,13.062-2.998,15.631
	c-3.641,2.569-3.897-0.54-5.717,1.071c-2.42,2.141-6.702,0.856-8.201,0.428s-11.135-8.779-20.984-11.349
	c-9.85-2.57-30.191-5.996-44.109,3.426S7.408,49.904,30.963,107.075c7.922,13.704,11.99,11.991,15.202,27.407
	c2.176,10.443,2.484,17.64,3.123,21.598l0,0c0,0,0.521,22.784-19.392,33.574c-16.416,8.896,51.084,22.73,67.476,41.219
	c11.816,13.329,8.339-8.24,5.296-26.414c3.897-7.819,12.039-21.816,14.932-24.434c4.021-3.638,4.786-5.552,13.783-3.829
	s20.674,7.083,21.822-11.868c-0.574-2.489-0.956-4.212,1.149-5.552c2.105-1.341,2.105-1.341,2.105-1.341s3.446-2.679,1.148-5.934
	c-0.191-0.957-1.341-1.723-1.341-1.723s1.665-2.064,1.638-5.561c0.933-0.191,3.039-0.063,3.822-2.331
	c1.271-3.681-2.479-2.479-0.29-9.337c0.607-1.904-0.001-4.978,3.254-4.978c3.254,0,9.764-0.574,9.764-4.211s0.189-2.68-3.83-7.274
	c-4.02-4.594-8.613-13.591-5.934-21.631c2.681-8.04,0.382-18.76-0.574-21.632c-0.957-2.871,6.893-6.508,12.061-9.188
	c5.168-2.68-2.489,1.531-8.232,2.297c-5.743,0.766-2.022-2.024-1.23-2.562c5.662-3.847,5.88-4.379,6.226-5.724
	c0.091-0.359-3.738,3.89-5.944,3.691c-1.986-0.179-2.995-2.292-2.421-2.334c7.363-0.524,6.661-5.407,6.853-6.316
	c0.765-3.637-0.444-4.558,6.46-9.918C184.792,37.41,186.515,31.858,186.323,30.519z"/>
</svg>
