<?xml version="1.0" encoding="utf-8"?>
<!-- Generator: Adobe Illustrator 15.0.0, SVG Export Plug-In . SVG Version: 6.00 Build 0)  -->
<!DOCTYPE svg PUBLIC "-//W3C//DTD SVG 1.1//EN" "http://www.w3.org/Graphics/SVG/1.1/DTD/svg11.dtd">
<svg version="1.1" id="Layer_1" xmlns="http://www.w3.org/2000/svg" xmlns:xlink="http://www.w3.org/1999/xlink" x="0px" y="0px"
	 width="195px" height="250px" viewBox="0 0 195 250" enable-background="new 0 0 195 250" xml:space="preserve">
<path fill="#FBEFBE" d="M28.486,81.192C35.899,17.489,69.284,8.901,92.462,6.234c23.281-2.679,21.633,1.854,26.577,2.266
	c4.945,0.412,5.769-2.266,8.24,0c2.473,2.267,4.328,4.122,7.624,3.916s3.296,0.412,5.15,2.267s1.03,0.618,10.508,2.06
	c9.477,1.442,5.975,13.186,6.181,15.246c0.206,2.06,2.266,10.096,5.975,18.955c3.708,8.859,0,21.221,0,21.221
	s-0.902,6.238,0.167,8.683s5.654,8.405,8.404,11.92c2.751,3.515,5.96,6.571,3.516,9.627c0,0-0.153,2.139-5.655,3.821
	c-5.501,1.68-6.418,1.069-6.265,4.126c0.152,3.056,1.222,6.112-2.14,8.252c-1.223,1.375,1.834,1.069,1.834,2.75
	s0.306,3.363-2.14,4.89c-2.445,1.528-1.222,5.195-0.306,7.64c0.917,2.446,3.989,10.9-6.154,12.191
	c-9.352,1.19-12.072-0.51-23.465-2.211c0,0,1.807,31.129,24.882,34.949c3.667,0.305-6.418,3.361-13.907,0.305
	c0,0-2.139,1.527,11.768,7.946c2.743,1.267,5.234,1.177,5.061,1.599c-0.523,1.264-11.898-0.186-18.203-3.279
	c-8.371-4.109-5.1,23.416,24.401,42.725c0.088,0.059,0.173,0.119,0.259,0.177c0,0-26.035-12.696-28.874-13.835
	c-10.22-4.094,13.842,14.191,23.394,17.148c1.352,0.42-12.025-1.912-28.22-7.576c0.161,2.734,32.205,13.4,30.595,13.412
	c-22.334,0.152-44.904-13.907-51.084-17.994c-1.128-0.748-0.537-0.003,0.016,0.523c27.147,25.91,49.752,19.09,48.92,20.066
	c-2.567,3.013-8.357,4.176-17.199,3.969c-6.396-0.148-13.348-0.49-30.783-5.434c-1.768-0.502-3.41-0.957-4.96-1.387
	c-1.036,1.225-3.226,0.799-7.036-1.994c-6.305-1.881-11.597-3.885-19.15-8.104c-25.775-5.78-60.834-2.757-51.527-15.285
	c4.573-6.157,6.782-14.335,7.771-22.081c-9.22-14.033-12.78-26.684-12.78-26.684C17.249,134.895,28.453,81.477,28.486,81.192z"/>
</svg>
