<svg version="1.1" id="tennessee" xmlns="http://www.w3.org/2000/svg" xmlns:xlink="http://www.w3.org/1999/xlink" x="0px" y="0px"
	 width="210px" height="50px" viewBox="0 0 210 50" enable-background="new 0 0 210 50" xml:space="preserve">
<path fill="#FBEFBE" d="M60.305,6.908c0,0-0.441-4.767,0-4.914c0.451-0.154,4.025,0,4.025,0l0.593,1.49l132.1-0.596V0.5h7
	c0,0-1.935,1.939-1.788,3.206c0.151,1.268-0.146,2.159-1.042,3.202c-0.895,1.042,1.789,2.233,0.151,2.233
	c-1.641,0-3.276,1.787-3.871,3.575c-0.599,1.787-0.743,4.172-2.387,3.724c-1.637-0.45-2.679-2.681-3.726-1.342
	c-1.041,1.342-2.227,0.45-3.42,2.232c-1.194,1.792,0,2.979-2.683,3.426c-2.682,0.451-1.937-0.147-2.827-1.338
	c-0.896-1.193,1.483-2.978-0.896-1.193c-2.379,1.79-3.277,1.49-3.277,2.679c0,1.194-0.443,2.085-1.488,1.048
	c-1.043-1.048-1.785-3.427-1.191-0.153c0.596,3.277,0.596,4.023-0.893,4.766c-1.489,0.744-0.896-0.595-3.274,1.047
	c-2.386,1.635-1.493,2.68-3.429,2.975c-1.938,0.303-1.34-2.975-3.125,0c-1.789,2.98,0.148,4.319-2.387,2.98
	c-2.529-1.34-5.061-1.932-6.849-0.594c-1.785,1.334-3.577,1.486-4.473,3.275c-0.889,1.788,1.289,4.498-1.931,6.104
	c-2.683,1.338-4.172-3.572-4.023-0.894c0.151,2.679-0.449,8.041-0.449,8.041L7.434,48.458c0,0-3.277-2.085,0-2.085
	c3.281,0,4.172,0.746,3.575-1.49c-0.595-2.23,0.598-2.976,1.94-2.084c1.336,0.892,2.976-1.338-0.15-2.085
	c-3.131-0.742-5.662-3.126-2.385-2.833c3.277,0.305,4.021,1.341,2.979-1.337c-1.044-2.68,0.15-2.978,1.19-2.233
	c1.044,0.742,4.47,2.679,2.384-0.147c-2.082-2.833-2.384-3.723-0.745-3.43c1.638,0.303,2.086,3.747,1.638,0.303
	c-0.449-3.425-6.402-4.021-3.425-5.063c2.977-1.046,5.214-0.3,6.107,0.891c0.892,1.193,2.979-1.637,2.234-3.128
	c-0.743-1.489-3.425-2.976-0.449-2.234c2.979,0.745,5.956,1.196,3.425-1.636c-2.529-2.831-4.318-0.597-2.529-2.831
	c1.786-2.235,2.98-2.382,1.341-3.423c-1.639-1.043-3.574-0.3-2.832-1.639c0.746-1.337,1.639-1.487,4.02-0.298
	c2.386,1.19,4.319-0.598,2.386-1.636c-1.936-1.047-5.068-2.685-2.086-2.088c2.982,0.599-0.448-2.533,1.34-2.383
	c1.786,0.148,2.98,1.488,2.98,1.488L60.305,6.908z"/>
</svg>
