<svg version="1.1" id="virginia" xmlns="http://www.w3.org/2000/svg" xmlns:xlink="http://www.w3.org/1999/xlink" x="0px" y="0px"
	 width="210px" height="99px" viewBox="0 0 210 99" enable-background="new 0 0 210 99" xml:space="preserve">
<path fill="#F0D911" d="M1.87,92.672c0.848,0,2.264,1.415,5.942,1.98c3.677,0.565,10.751-0.283,13.581,0
	c2.83,0.282,5.093-0.168,8.77,0.199c3.679,0.366,12.451,1.613,16.695,0c4.242-1.613,7.355,0.395,9.335,0.807
	c1.98,0.409,4.528-2.958,7.356,0c2.831,2.956,141.187,2.673,141.47,1.542c0.283-1.133-0.566-4.811,0-4.528
	c0.566,0.283,1.133-0.914,2.264,2.655c1.129,3.57,1.131-1.522,0-4.07c-1.131-2.547-1.697,0-2.547-3.679
	c-0.85-3.676-0.85-4.243-2.83-3.96c-1.979,0.284-3.111-1.414-5.377,1.415c-2.264,2.829-5.375,5.941-5.375,2.262
	c0-3.677,1.98-4.526,0.283-5.091c-1.699-0.567-1.699-1.134-3.961-1.416c-2.262-0.281-0.85,2.83-2.262-0.281
	c-1.416-3.112,4.523-3.396-1.416-3.112c-5.943,0.282-4.527,0-6.791-1.699s-1.414-2.828-4.529-2.263
	c-3.111,0.563-8.486-3.769-2.826-2.874c5.66,0.893,7.922,0.61,8.77,2.309c0.85,1.697,1.131-0.849,3.113,0.565
	c1.98,1.414-0.283,1.414,1.98,1.414s3.111-2.263,3.678-0.282c0.568,1.981,1.98,1.981,2.545,2.83c0.566,0.848,1.135,0.848,2.266,1.98
	c1.131,1.132-0.283,3.394,2.262,2.262c2.547-1.13,2.83,2.266,2.547-1.13c-0.283-3.396-0.848-4.528-2.262-5.096
	c-1.416-0.564-0.285-0.847-1.98-1.694c-1.697-0.85-2.266-2.921-3.961-3.158c-1.699-0.237-3.113-1.371-3.395-3.35
	c-0.285-1.981-1.699-0.852-0.285-1.981c1.414-1.132,3.396,1.131,5.375,3.395c1.982,2.264,1.699,0.474,3.396,1.937
	c0,0-2.828-1.178,1.699,0c4.527,1.177,4.527,1.177,4.527,1.177s2.545-2.829,1.412-4.811c-1.131-1.979,1.133-0.603-2.264-1.999
	c-3.395-1.397-2.547-0.83-4.811-1.397c-2.262-0.564-2.547-2.545-3.393-2.827c-0.85-0.284-5.094-2.264-5.943-3.679
	c-0.85-1.414,0.283,0.849-0.85-1.414c-1.131-2.264-0.848,2.148-3.959-2.604c-3.113-4.753-3.961-5.602-4.809-7.583
	c-0.85-1.979-1.133-3.676-1.133-3.676s2.262,1.414,3.676,3.111c1.416,1.697,2.832,1.697,3.396,3.677
	c0.566,1.981,0.85,1.414,1.98,3.113c1.133,1.698,0.283-2.378,3.111,1.357c2.83,3.735,3.014,2.603,3.113,4.867
	c0.098,2.265,1.416,1.131,2.83,1.698c1.414,0.566,1.414,0.566,1.414,0.566s1.98-0.566,2.547-3.113
	c0.564-2.547,4.811-4.244,1.414-5.943c-3.396-1.694-2.828-3.394-4.527-2.545c-1.697,0.851-2.262,0-3.678-1.131
	c-1.414-1.131,0.566-1.698-2.264-2.264c-2.828-0.565-3.396-0.849-4.811-1.697c-1.414-0.851-4.527-1.415-4.527-3.679
	c0-2.263,0.85-7.354-2.543-4.527c-3.398,2.83-5.096,3.679-6.793,2.547c-1.697-1.132-1.98-4.526,0.285-6.223
	c2.262-1.7,1.43-2.997,2.262-2.829c2.828,0.564,2.262-0.85,3.113-1.417c0.848-0.565,1.131-1.415,2.262-3.111
	c1.133-1.698,3.111-0.567,1.414-3.113c-1.695-2.547,0-3.679-1.979-4.527c-1.982-0.848-2.264-1.13-3.963,0
	c-1.697,1.132-2.547-0.079-2.828-0.747s-0.564,1.313-0.281-0.668c0.281-1.98,1.412-2.263-2.547-2.263
	c-3.963,0-5.377-1.132-3.113-3.111c2.264-1.982,4.525-2.265,3.678-2.831c-0.85-0.566-2.547-1.698-5.941-1.698
	c-3.396,0-5.658-0.566-5.658,1.98c0,2.548-3.113,1.415-3.68,0.284c0,0-7.355-6.509-8.203-6.509c-0.85,0-0.568,1.983-1.982,4.245
	c-1.416,2.265,1.133,3.678-0.564,5.658c-1.699,1.982-3.396,0.85-3.963,3.68c-0.564,2.827,1.133,4.242-1.697,4.242
	s-3.791-2.827-4.299,0c-0.51,2.83-0.51,5.378-2.492,5.095c-1.979-0.284-1.414-3.396-3.393-1.134
	c-1.982,2.265-6.225,8.773-5.941,10.471c0.281,1.697,1.129,3.11-0.568,3.394c-1.697,0.283-6.508,0.282-5.941-1.131
	c0.566-1.415,0.848-2.547-0.566-3.112c-1.414-0.566-2.262-4.244-2.828-1.416c-0.568,2.83,0.281,4.527-1.416,5.094
	c-1.697,0.565-2.686,0.282-2.686,0.282s-3.255,1.698-1.275,3.113c1.982,1.414,3.68,3.678,1.275,4.244
	c-2.406,0.566-5.234-1.416-5.234,2.83c0,4.244-0.85,4.979-2.266,6.45c-1.414,1.472-3.677-4.187-3.113,2.038
	c0.568,6.225-1.414,5.658-1.978,7.64c-0.566,1.98,0.564,3.112-0.566,4.243c-1.133,1.131-0.85,2.263-2.83,1.981
	c-1.98-0.284,1.697-1.416-1.98-0.284c-3.679,1.134-3.961,1.89-4.811,1.937c-0.847,0.044,0,0.326-2.829-1.371
	c-2.83-1.697-0.283,0-3.678,2.548c-3.394,2.547-4.244,3.395-5.094,2.261c-0.847-1.129-0.847-2.827-2.828-0.563
	c-1.98,2.263-3.113,3.113-4.245,0.85c-1.131-2.264-0.849-2.264-2.264-1.133c-1.415,1.133-1.131,0.847-2.829,1.133
	c-1.697,0.282-1.132,1.129-2.829,0c-1.698-1.133,1.415-0.284-1.698-1.133c-3.111-0.849-7.072-6.791-7.072-6.791
	s1.13-3.112,0.282-2.263c-0.849,0.85,2.546,3.022-5.658,6.463c-8.207,3.438-12.732,3.156-13.017,5.42
	c-0.282,2.264,1.697,3.679-0.849,3.396c-2.548-0.283-1.697-5.093-2.548-0.283c-0.846,4.809-0.846,9.054-3.959,8.203
	c-3.113-0.85-3.113-0.279-5.093,2.549c-1.979,2.828-4.527-1.415-5.941-0.284c-1.416,1.132-4.81,0.565-4.81,0.565L1.87,92.672z"/>
</svg>
